PathFileType	4	(X/Y/Z)	Kaydara																																																																																																																																																																																																																												
DataRate	CameraRate	NumFrames	NumMarkers	Units	OrigDataRate	OrigDataStartFrame	OrigNumFrames																																																																																																																																																																																																																								
60	60	4	74	mm	60	776	211																																																																																																																																																																																																																								
Frame#	Time	N_lasi			N_rasi			N_rpsi			N_lpsi			N_fneck			N_bneck			N_fhead			N_rhead			N_lhead			N_rshld			N_relbtop			N_relbext			N_relblow			N_rwrext			N_rwrtop			N_rwrlow			N_lshld			N_lelblow			N_lelbtop			N_lwrext			N_lwrtop			N_lwrlow			N_rtopleg			N_ltopleg			N_rkneefr			N_rkneebk			N_rkneeis			N_lkneefr			N_lknssbk			N_lkneeis			N_rankfr			N_rankis			N_rankbk			N_lankfr			N_lankbk			N_lankis			D_lasi			D_rasi			D_lpsi			D_fneck			D_bneck			D_fhead			D_rhead			D_lhead			D_rshld			D_relbtop			D_relbext			D_relblow			D_rwrext			D_rwrtop			D_rwrlow			D_lshld			D_lelbext			D_lelblow			D_lelbtop			D_lwrext			D_lwrtop			D_lwrlow			D_rtopleg			D_ltopleg			D_rkneefr			D_rkneebk			D_rkneeis			D_lkneefr			D_lknssbk			D_lkneeis			D_rankfr			D_rankis			D_rankbk			D_lankfr			D_lankbk			D_lankis			D_rpsi			N_lelbext		
		X1	Y1	Z1	X2	Y2	Z2	X3	Y3	Z3	X4	Y4	Z4	X5	Y5	Z5	X6	Y6	Z6	X7	Y7	Z7	X8	Y8	Z8	X9	Y9	Z9	X10	Y10	Z10	X11	Y11	Z11	X12	Y12	Z12	X13	Y13	Z13	X14	Y14	Z14	X15	Y15	Z15	X16	Y16	Z16	X17	Y17	Z17	X18	Y18	Z18	X19	Y19	Z19	X20	Y20	Z20	X21	Y21	Z21	X22	Y22	Z22	X23	Y23	Z23	X24	Y24	Z24	X25	Y25	Z25	X26	Y26	Z26	X27	Y27	Z27	X28	Y28	Z28	X29	Y29	Z29	X30	Y30	Z30	X31	Y31	Z31	X32	Y32	Z32	X33	Y33	Z33	X34	Y34	Z34	X35	Y35	Z35	X36	Y36	Z36	X37	Y37	Z37	X38	Y38	Z38	X39	Y39	Z39	X40	Y40	Z40	X41	Y41	Z41	X42	Y42	Z42	X43	Y43	Z43	X44	Y44	Z44	X45	Y45	Z45	X46	Y46	Z46	X47	Y47	Z47	X48	Y48	Z48	X49	Y49	Z49	X50	Y50	Z50	X51	Y51	Z51	X52	Y52	Z52	X53	Y53	Z53	X54	Y54	Z54	X55	Y55	Z55	X56	Y56	Z56	X57	Y57	Z57	X58	Y58	Z58	X59	Y59	Z59	X60	Y60	Z60	X61	Y61	Z61	X62	Y62	Z62	X63	Y63	Z63	X64	Y64	Z64	X65	Y65	Z65	X66	Y66	Z66	X67	Y67	Z67	X68	Y68	Z68	X69	Y69	Z69	X70	Y70	Z70	X71	Y71	Z71	X72	Y72	Z72	X73	Y73	Z73	X74	Y74	Z74
																																																																																																																																																																																																																															
106	12.917	-533.68279	1232.46864	-51.49276	-526.32393	1245.63988	-283.96723	-257.31781	1227.65953	-337.81651	-272.46937	1219.7905	14.09196	-402.25578	1603.59055	-143.51341	-265.01057	1665.18524	-154.21141	-453.77483	1809.70184	-140.79216	-269.49997	1766.96503	-213.09551	-307.38852	1769.08493	-60.97558	-278.88157	1637.51541	-352.10712	-227.28382	1553.16345	-626.09089	-316.43625	1545.69656	-619.85516	-258.4605	1627.80975	-586.94527	-380.73727	1863.96118	-665.3228	-382.30434	1855.7608	-617.38201	-417.2411	1821.75385	-608.5186	-260.91995	1616.00754	20.10203	-263.49915	1624.43375	292.79644	-226.90235	1544.08768	302.6827	-198.75723	1610.50995	613.05756	-234.72359	1639.94019	623.386	-270.07242	1598.06671	622.91698	-431.04176	1047.13257	-419.77013	-369.04095	1012.69333	64.9739	-437.87571	561.38039	-245.97925	-332.90642	580.10876	-315.69614	-373.69518	563.8549	-153.83252	-382.66476	539.26796	-86.60285	-255.51655	555.25227	-30.23826	-261.70395	547.87117	-180.16506	-299.46707	140.89938	-267.02887	-299.71277	154.4341	-186.7396	-218.4893	143.24257	-213.88247	-332.43229	192.67225	-112.85805	-258.50046	185.28439	-72.09062	-294.50046	164.28439	-156.09062	-455.82573	1037.91565	1729.04572	-422.77275	1059.04602	1443.19305	-255.1919	1128.86879	1730.39749	-420.50274	1562.11853	1572.10999	-283.74228	1592.38052	1581.34232	-455.51121	1778.06091	1564.55231	-292.46807	1727.13593	1494.91425	-306.05907	1730.8107	1649.5256	-354.27544	1493.58337	1370.1236	-250.85537	1169.44534	1365.81924	-285.48807	1151.73386	1426.02829	-330.16151	1174.39743	1329.90936	-305.36993	921.44447	1350.42892	-356.5136	922.08458	1323.24615	-378.34328	938.73749	1370.26199	-346.61507	1528.5228	1801.74957	-380.08625	1261.00754	1944.18106	-365.90561	1348.17535	1997.50275	-315.11307	1286.57623	1983.98926	-442.29912	1171.7485	2173.79974	-483.17894	1187.28439	2163.57498	-496.76731	1161.49399	2122.51511	-332.47871	1005.81802	1400.24506	-314.07394	1008.63907	1793.62396	-375.644	456.60744	1443.62854	-276.37568	491.26667	1413.18573	-281.49832	461.05782	1534.47357	-364.57405	452.38705	1764.36066	-250.75947	485.6023	1777.92374	-325.27565	442.57408	1673.07373	-324.7953	130.03367	1416.7131	-294.69692	127.71838	1481.07452	-244.50344	127.96957	1415.45013	-324.29115	134.32071	1790.67444	-251.34602	125.34825	1803.70468	-295.37338	123.04933	1731.07819	-228.17709	1144.24232	1513.24951	-318.99414	1539.12445	314.33619
107	12.933	-533.69003	1232.30858	-51.65596	-526.3446	1245.41924	-284.03111	-257.27015	1227.58316	-337.78225	-272.48299	1219.80278	14.135	-402.35695	1603.54141	-143.40268	-265.14502	1665.16632	-154.23032	-454.53121	1809.32281	-141.30852	-269.95579	1767.16827	-213.16309	-308.1023	1769.23294	-61.39729	-279.02731	1637.16919	-352.5351	-227.21548	1552.09427	-626.08242	-316.58678	1544.64966	-620.35431	-258.60275	1626.83044	-587.33578	-380.50457	1862.67853	-668.18741	-382.4913	1854.93103	-620.21305	-417.45388	1821.09589	-611.28349	-261.29341	1616.04401	19.92292	-264.43638	1624.45419	292.77655	-227.66359	1544.17755	302.54223	-200.55504	1610.45792	613.11939	-236.41205	1639.9704	623.33961	-271.75322	1598.17169	622.76623	-430.9124	1047.06085	-419.89491	-369.01978	1012.67662	65.04493	-438.05832	561.36223	-245.86796	-333.12664	580.06031	-315.6028	-373.75542	563.81783	-153.80848	-382.67109	539.26624	-86.54044	-255.49406	555.24746	-30.21546	-261.76765	547.86518	-180.16623	-299.52238	140.86559	-266.98399	-299.7463	154.43171	-186.66079	-218.49636	143.23866	-213.88308	-332.41009	192.67097	-112.85861	-258.45308	185.26796	-72.09402	-294.45308	164.26796	-156.09402	-456.32469	1037.85393	1729.34448	-422.72011	1059.12102	1443.55759	-255.48483	1128.78822	1730.80063	-420.3548	1562.1347	1572.44263	-283.73568	1592.24533	1582.19406	-455.38094	1778.04321	1564.7464	-292.14117	1726.95145	1496.33896	-306.25572	1730.93567	1650.40009	-353.85052	1493.74542	1370.87875	-250.65113	1169.48997	1366.03989	-285.23928	1151.80618	1426.30112	-329.8682	1174.49715	1330.23438	-305.32654	921.53114	1350.63156	-356.53282	922.17293	1323.53485	-378.25333	938.834	1370.4425	-348.46519	1525.21591	1803.23273	-375.44601	1249.61708	1934.57809	-366.00449	1334.49326	1991.89697	-312.76768	1275.70808	1977.02606	-440.53947	1147.11258	2156.63971	-480.95261	1161.53145	2147.63565	-492.42268	1137.17094	2104.6286	-332.47871	1005.81802	1400.24506	-314.54023	1008.53683	1793.89328	-375.64743	456.61289	1443.64655	-276.27934	491.26945	1413.33557	-281.46366	461.07761	1534.67224	-364.59949	452.34612	1764.45328	-250.88913	485.74913	1778.05588	-325.13172	442.62932	1673.15781	-324.73686	130.10701	1416.63193	-294.72097	127.72973	1481.06049	-244.5064	127.95948	1415.51498	-324.28951	134.35936	1790.70084	-251.37064	125.33741	1803.75122	-295.34584	123.04253	1731.10703	-228.15004	1144.21074	1513.71597	-319.89798	1539.19586	314.01114
108	12.95	-533.74931	1232.16927	-51.75724	-526.34914	1245.21469	-284.05817	-257.24497	1227.47284	-337.70489	-272.50332	1219.8365	14.21311	-402.88734	1603.54721	-143.32174	-265.70873	1665.20233	-154.279	-455.23083	1809.05487	-141.7287	-270.58784	1767.22	-213.284	-309.61067	1769.25507	-61.09913	-279.12636	1636.84875	-352.87205	-227.09829	1551.01013	-626.01913	-316.6025	1543.58002	-620.46368	-258.65314	1625.83221	-587.50404	-380.21973	1861.39099	-671.8116	-382.66785	1854.18243	-623.92963	-417.72186	1820.54565	-614.80484	-261.51628	1616.16821	19.7953	-265.06899	1624.53644	292.66645	-228.88828	1544.13193	302.6099	-202.29136	1610.24353	613.29155	-238.20072	1639.8494	623.31104	-273.57857	1598.18497	622.67483	-430.87879	1046.94122	-419.93874	-369.01417	1012.65991	65.09979	-438.20023	561.31363	-245.78161	-333.32104	580.03975	-315.51857	-373.84422	563.79971	-153.76026	-382.67174	539.24713	-86.47212	-255.48151	555.23792	-30.18311	-261.85923	547.86919	-180.13401	-299.55675	140.84986	-266.95568	-299.809	154.43123	-186.61219	-218.56905	143.22923	-213.83259	-332.42561	192.65432	-112.81144	-258.44461	185.26236	-72.0949	-294.44461	164.26236	-156.0949	-456.83849	1037.74925	1729.56039	-422.64713	1059.25606	1443.74039	-256.00252	1128.67065	1731.3472	-420.38616	1562.16187	1573.01651	-283.88689	1591.98318	1583.33389	-455.23865	1778.00858	1565.02502	-291.81511	1726.83563	1497.33917	-306.54478	1730.97504	1651.23077	-353.35011	1493.94012	1371.42563	-250.57148	1169.57146	1366.5274	-285.11126	1151.9252	1426.73004	-329.69181	1174.65385	1330.6044	-305.2046	921.66565	1350.76111	-356.51096	922.31079	1323.7796	-378.10658	938.9798	1370.72372	-349.7847	1522.3761	1804.40155	-370.87307	1238.68126	1924.84787	-366.29585	1321.34491	1986.06033	-310.43407	1265.2906	1970.04013	-437.37488	1123.56438	2140.29099	-478.2262	1136.79901	2130.83893	-487.43774	1114.15489	2086.18484	-332.47871	1005.81802	1400.24506	-315.15537	1008.51669	1794.27155	-375.58891	456.64143	1443.69095	-276.17008	491.2899	1413.44131	-281.51651	461.03046	1534.78928	-364.60648	452.33135	1764.46716	-250.95963	485.72617	1778.3075	-324.97372	442.63325	1673.23303	-324.72061	130.11352	1416.62399	-294.70427	127.71846	1481.09329	-244.47327	127.94724	1415.57724	-324.29989	134.36946	1790.70206	-251.41808	125.30517	1803.81287	-295.29799	123.04233	1731.10748	-228.10797	1144.15756	1514.27872	-320.93437	1539.38202	313.80966
109	12.967	-533.83869	1232.0546	-51.80634	-526.37001	1245.00229	-284.09946	-257.25485	1227.4044	-337.61204	-272.60092	1219.81384	14.27	-402.59808	1604.00787	-143.36143	-265.45277	1665.69351	-154.44834	-455.93067	1808.78113	-142.05142	-270.92388	1767.34528	-213.3169	-309.92193	1769.33395	-61.63716	-279.2313	1636.57196	-353.16895	-226.99036	1549.9382	-625.89195	-316.57536	1542.47971	-620.6559	-258.68671	1624.82483	-587.68177	-379.85058	1859.87015	-676.30615	-383.0777	1853.26859	-628.38551	-418.07816	1819.70154	-619.34338	-261.81	1616.26297	19.75891	-265.78665	1624.36142	292.6001	-229.78512	1543.90427	302.57183	-203.82687	1610.00153	613.50361	-239.60594	1639.70032	623.23616	-275.19714	1598.08365	622.56268	-430.96474	1046.78001	-419.856	-369.01062	1012.66464	65.13442	-438.31707	561.29475	-245.66782	-333.46653	579.99596	-315.43667	-373.85586	563.7328	-153.69072	-382.63962	539.23237	-86.34255	-255.41134	555.24757	-30.1596	-261.92276	547.85381	-180.12783	-299.585	140.8357	-266.92236	-299.81129	154.41607	-186.57059	-218.5668	143.21721	-213.83915	-332.4073	192.65471	-112.7468	-258.39056	185.27061	-72.09023	-294.39056	164.27061	-156.09023	-457.37614	1037.59804	1729.64569	-422.51537	1059.35898	1443.60947	-256.70542	1128.65395	1731.73431	-420.27699	1562.16721	1573.77075	-283.97892	1591.74057	1584.51981	-455.10639	1777.99591	1565.39063	-291.28611	1726.89667	1499.02756	-306.71524	1730.85114	1652.27875	-352.69478	1494.27933	1372.02118	-250.2141	1169.68918	1366.88461	-284.8785	1152.10159	1427.1875	-329.58366	1174.88876	1331.16241	-305.05178	921.83632	1350.97076	-356.43723	922.5383	1324.05945	-377.83237	939.03061	1371.10153	-350.66612	1519.97971	1805.37445	-365.54585	1228.14163	1914.66385	-366.44478	1308.2016	1979.88663	-308.05679	1255.24673	1962.46643	-433.41972	1101.6349	2123.8179	-474.82975	1113.16391	2113.01788	-481.89964	1092.51877	2067.26074	-332.47871	1005.81802	1400.24506	-315.57964	1008.41293	1794.53003	-375.53478	456.64497	1443.72604	-276.02417	491.30196	1413.6084	-281.46805	461.05026	1534.99512	-364.62494	452.28081	1764.49722	-251.04258	485.71129	1778.56445	-324.85374	442.6442	1673.29681	-324.66888	130.12767	1416.60217	-294.72256	127.72715	1481.15341	-244.43651	127.92785	1415.63736	-324.31316	134.32322	1790.68069	-251.45115	125.32851	1803.94211	-295.26102	123.05113	1731.13571	-228.09671	1143.97385	1514.66461	-322.02812	1539.49066	313.44181
